<?xml version="1.0" encoding="utf-8"?>
<svg version="1.1" id="Layer_2_1_" xmlns="http://www.w3.org/2000/svg" xmlns:xlink="http://www.w3.org/1999/xlink" x="0px"
	 y="0px"
	 viewBox="0 0 620.9 619.9" style="enable-background:new 0 0 620.9 619.9;" xml:space="preserve">
<style type="text/css">.st0{fill:none;stroke:#AAAAAA;stroke-miterlimit:10;}.st1{fill:#FFFFFF;}</style>
	<path class="st0 line line1" d="M270.3,230h-82.6c-8.4,0-15.3,6.8-15.3,15.3v250.6"/>
	<path class="st0 line line2" d="M268.2,255.8v78.1c0,5.5-4.4,9.9-9.9,9.9H223c-5.5,0-9.9,4.4-9.9,9.9v39.5c0,5.5,4.4,9.9,9.9,9.9h35.3
	c5.5,0,9.9,4.4,9.9,9.9v80.5"/>
	<path class="st0 line line3" d="M354.1,243.2h50.6c8.2,0,14.8,6.6,14.8,14.8v120.6c0,8.2,6.6,14.8,14.8,14.8h12.8c8.2,0,14.8,6.6,14.8,14.8
	v81.6"/>
	<path class="st0 line line4" d="M334.7,264.8v117.1c0,5.5,4.4,9.9,9.9,9.9H355c6.3,0,11.4,5.1,11.4,11.4v88.9"/>
	<g class="envelope envelope1" transform="translate(280, 220)">
		<path d="M32.9,0.6C32.5,0.2,32.1,0,31.4,0H2.3C1.7,0,1.1,0.2,0.6,0.6S0,1.7,0,2.3v20.2c0,0.6,0.2,1.1,0.6,1.7
		c0.4,0.4,1.1,0.6,1.7,0.6h29.1c0.6,0,1.1-0.2,1.7-0.6c0.4-0.4,0.6-1.1,0.6-1.7V2.3C33.7,1.7,33.3,1.1,32.9,0.6z M29.7,2.3
		L16.9,15.2L3.8,2.3H29.7z M2.3,3.8l8.2,8.2l-8.2,8.2V3.8z M3.2,22.4l8.9-8.9l4,4c0.2,0.4,0.4,0.4,0.8,0.4c0.2,0,0.6,0,0.8-0.4
		l3.8-3.8l8.4,8.4H3.2V22.4z M31.4,20.9L23,12.4L31.4,4V20.9z"/>
		<polygon class="st1" points="10.5,12 2.3,20.2 2.3,3.8"/>
		<path class="st1"
			  d="M29.7,22.4H3.2l8.9-8.9l4,4c0.2,0.4,0.4,0.4,0.8,0.4c0.2,0,0.6,0,0.8-0.4l3.8-3.8L29.7,22.4z"/>
		<polygon class="st1" points="31.4,3.8 31.4,20.9 22.8,12.2"/>
		<polygon class="st1" points="29.7,2.3 16.9,15.2 3.8,2.3"/>
	</g>

	<g class="envelope envelope2" transform="translate(280, 220)">
		<path d="M32.9,0.6C32.5,0.2,32.1,0,31.4,0H2.3C1.7,0,1.1,0.2,0.6,0.6S0,1.7,0,2.3v20.2c0,0.6,0.2,1.1,0.6,1.7
		c0.4,0.4,1.1,0.6,1.7,0.6h29.1c0.6,0,1.1-0.2,1.7-0.6c0.4-0.4,0.6-1.1,0.6-1.7V2.3C33.7,1.7,33.3,1.1,32.9,0.6z M29.7,2.3
		L16.9,15.2L3.8,2.3H29.7z M2.3,3.8l8.2,8.2l-8.2,8.2V3.8z M3.2,22.4l8.9-8.9l4,4c0.2,0.4,0.4,0.4,0.8,0.4c0.2,0,0.6,0,0.8-0.4
		l3.8-3.8l8.4,8.4H3.2V22.4z M31.4,20.9L23,12.4L31.4,4V20.9z"/>
		<polygon class="st1" points="10.5,12 2.3,20.2 2.3,3.8"/>
		<path class="st1"
			  d="M29.7,22.4H3.2l8.9-8.9l4,4c0.2,0.4,0.4,0.4,0.8,0.4c0.2,0,0.6,0,0.8-0.4l3.8-3.8L29.7,22.4z"/>
		<polygon class="st1" points="31.4,3.8 31.4,20.9 22.8,12.2"/>
		<polygon class="st1" points="29.7,2.3 16.9,15.2 3.8,2.3"/>
	</g>

	<g class="envelope envelope3" transform="translate(280, 220)">
		<path d="M32.9,0.6C32.5,0.2,32.1,0,31.4,0H2.3C1.7,0,1.1,0.2,0.6,0.6S0,1.7,0,2.3v20.2c0,0.6,0.2,1.1,0.6,1.7
		c0.4,0.4,1.1,0.6,1.7,0.6h29.1c0.6,0,1.1-0.2,1.7-0.6c0.4-0.4,0.6-1.1,0.6-1.7V2.3C33.7,1.7,33.3,1.1,32.9,0.6z M29.7,2.3
		L16.9,15.2L3.8,2.3H29.7z M2.3,3.8l8.2,8.2l-8.2,8.2V3.8z M3.2,22.4l8.9-8.9l4,4c0.2,0.4,0.4,0.4,0.8,0.4c0.2,0,0.6,0,0.8-0.4
		l3.8-3.8l8.4,8.4H3.2V22.4z M31.4,20.9L23,12.4L31.4,4V20.9z"/>
		<polygon class="st1" points="10.5,12 2.3,20.2 2.3,3.8"/>
		<path class="st1"
			  d="M29.7,22.4H3.2l8.9-8.9l4,4c0.2,0.4,0.4,0.4,0.8,0.4c0.2,0,0.6,0,0.8-0.4l3.8-3.8L29.7,22.4z"/>
		<polygon class="st1" points="31.4,3.8 31.4,20.9 22.8,12.2"/>
		<polygon class="st1" points="29.7,2.3 16.9,15.2 3.8,2.3"/>
	</g>

	<g class="envelope envelope4" transform="translate(280, 220)">
		<path d="M32.9,0.6C32.5,0.2,32.1,0,31.4,0H2.3C1.7,0,1.1,0.2,0.6,0.6S0,1.7,0,2.3v20.2c0,0.6,0.2,1.1,0.6,1.7
		c0.4,0.4,1.1,0.6,1.7,0.6h29.1c0.6,0,1.1-0.2,1.7-0.6c0.4-0.4,0.6-1.1,0.6-1.7V2.3C33.7,1.7,33.3,1.1,32.9,0.6z M29.7,2.3
		L16.9,15.2L3.8,2.3H29.7z M2.3,3.8l8.2,8.2l-8.2,8.2V3.8z M3.2,22.4l8.9-8.9l4,4c0.2,0.4,0.4,0.4,0.8,0.4c0.2,0,0.6,0,0.8-0.4
		l3.8-3.8l8.4,8.4H3.2V22.4z M31.4,20.9L23,12.4L31.4,4V20.9z"/>
		<polygon class="st1" points="10.5,12 2.3,20.2 2.3,3.8"/>
		<path class="st1"
			  d="M29.7,22.4H3.2l8.9-8.9l4,4c0.2,0.4,0.4,0.4,0.8,0.4c0.2,0,0.6,0,0.8-0.4l3.8-3.8L29.7,22.4z"/>
		<polygon class="st1" points="31.4,3.8 31.4,20.9 22.8,12.2"/>
		<polygon class="st1" points="29.7,2.3 16.9,15.2 3.8,2.3"/>
	</g>
</svg>
