<?xml version="1.0" encoding="utf-8"?>
<!-- Generator: Adobe Illustrator 25.0.0, SVG Export Plug-In . SVG Version: 6.00 Build 0)  -->
<svg version="1.1" xmlns="http://www.w3.org/2000/svg" xmlns:xlink="http://www.w3.org/1999/xlink" x="0px" y="0px"
	 viewBox="0 0 3049.2 2631.3" style="enable-background:new 0 0 3049.2 2631.3;" xml:space="preserve">
<style type="text/css">
	.st0{fill:#D82F02;}
</style>
<g id="Ñëîé_2">
</g>
<g id="Ñëîé_1">
	<g>
		<path class="st0" d="M1947.8,3.4c76.5-2.1,152.7,0.3,228,15.4c30,6,59.3,17.5,89.5,20c106.6,9,194.7,61.6,283.5,114
			c56.6,33.4,94.1,83.7,127.8,137.8c14.6,23.5,22.3,49.8,25.5,77.2c0.5,4.3,0.6,8.7,0.4,13c-0.9,22.8-16.6,40.4-38.3,43.2
			c-21.4,2.7-42.1-9.5-46.8-31.7c-10.2-48-39.5-82-76.6-111c-48.1-37.6-96.3-75.4-154.2-97.1c-24.2-9-50-13.6-75-20.3
			c-37.6-10.2-74.7-23.2-112.8-30.1c-46-8.4-92.9-12.7-139.6-16.7c-27.4-2.4-55.2-0.9-82.8-1c-38.7-0.1-77.4-1.6-115.9,0.3
			c-101.5,5-203,10.9-301.6,39.1c-48.3,13.8-97,26.3-144.5,42.5c-64.2,21.9-127.2,47.5-191.2,70.1c-72,25.3-139.2,60.8-204.9,98.8
			c-77,44.5-151.3,93.7-221.8,148C754.6,546.8,714,580.5,674.4,615c-19.8,17.2-36.1,38.2-54.5,57c-30,30.8-60.5,61-90.6,91.7
			c-49.5,50.4-85,110.8-121.9,170.3c-10.5,17-21.4,33.8-33.2,49.9c-62.6,85.2-109.7,178.2-146.8,277.1
			c-35.9,95.7-61.3,193.7-75.2,294.6c-8.3,60.1-1.8,120.5,5.4,180.4c4.6,38.4,8.3,77,16.3,114.7c12.8,59.6,40.8,113.1,73.5,164.2
			c14.5,22.7,30,45,42.2,69c19,37,46.1,66.7,76.7,93.8c40.9,36.2,82.5,71.6,123.4,107.8c33.2,29.4,73.5,46.7,112,67
			c15.6,8.2,31.4,16.2,46.7,24.9c56.7,32.3,120.2,44.6,181.7,62.7c35.1,10.3,69.7,24.5,105.6,29.5c48.3,6.7,97.6,6.2,146.4,8.9
			c45.8,2.5,91.6,6.4,137.5,7.6c43.9,1.2,88,2.6,131.6-1.2c91.2-8,182.1-20.5,273.3-28.9c51.7-4.7,100.1-21.4,149.8-34
			c48.1-12.2,96.1-24.9,144.9-33.8c40.7-7.5,78-22.2,114.6-40.1c62.8-30.6,126.7-59.4,188.2-92.5c58.6-31.5,115.9-65.9,171.5-102.3
			c32.6-21.4,62.1-48,91-74.5c117.5-107.9,208.9-235.3,278.1-378.7c26.4-54.6,53-109,78.9-163.8c22.8-48.3,36.4-99.1,43.8-152.1
			c8.1-57.4,21.3-114.2,26.9-171.7c3.5-36.3-0.4-73.9-5.2-110.4c-9.6-73.3-22.2-146.2-33.2-219.4c-2.1-13.8-2.1-27.9-3.1-41.9
			c-2.8-39.8-5.3-79.7-8.7-119.5c-2.1-24.6,8.3-42,30-47.1c20.6-4.9,42.9,6.9,50,28.4c14.9,45.2,29,90.7,43.2,136.2
			c24.6,79.2,51.9,157.9,61.4,240.7c4,35.4,2.2,71.8-0.6,107.5c-6.7,84.3-10.4,169.4-32.2,251.5c-19.7,74.3-33.6,150.6-65.6,221
			c-17.8,39.3-42.6,75.4-61.2,114.3c-34.3,71.6-82.7,134.4-123.2,202c-18.9,31.6-45.3,59.1-70.1,86.9
			c-42.4,47.4-85.2,94.6-129.7,140c-44.8,45.6-101.9,74.6-154.6,109.6c-15.8,10.5-32.3,20.1-47.5,31.4c-30.1,22.6-63,39.4-97.4,54.4
			c-54.6,23.8-108.5,49.3-161.8,76.1c-30.4,15.3-61.5,26.1-94.7,33.3c-60.2,13.2-119.7,29.4-179.7,43.3
			c-79.8,18.5-159.1,40.7-239.9,52.7c-64.8,9.6-130.1,22.2-196.5,19.8c-19.4-0.7-39,4.6-58.6,5.6c-20.6,1.1-41.5,2.4-61.8-0.2
			c-39.4-5.1-78.4-4.6-117.6,0.5c-36.1,4.7-71.4-0.2-107.2-6.6c-60.9-10.8-122.5-18.2-183.6-27.9c-20.2-3.2-41.3-6.3-59.8-14.5
			c-48.3-21.4-98.7-36.3-148.8-52.3c-26.5-8.4-51.9-20.7-77.1-32.7c-37.3-17.7-74.9-35-110.6-55.7c-40-23.2-78.3-49.5-116.8-75.2
			c-37.7-25.2-64.1-61.6-94.3-94.5c-56.6-61.8-101.1-132.3-146.6-201.9c-44.7-68.3-66.1-146.2-82-225.1
			c-12.1-60-21.5-120.8-26.7-181.7c-3-35,4.2-70.9,8.2-106.3c7.4-64.6,15.8-129,34-191.7c29-99.4,66.9-195.3,115.9-286.6
			c23.7-44.3,48.3-88.2,71.7-132.7c25.3-48.1,56.3-91.7,92.8-132.1c65.6-72.7,133.9-143.1,191.5-222.7c15.9-22,37.1-37.7,59.5-52.6
			c23.2-15.5,45.2-32.9,67.6-49.6c26.4-19.7,52.5-39.9,79-59.4c42.7-31.3,84.9-63.3,128.7-93.1c48.7-33.2,97.8-65.8,148.5-95.8
			c68.1-40.4,141.7-69.3,216.1-96.1c16.3-5.9,31.9-13.6,48.1-19.5c29.6-10.8,59.4-21.2,89.3-31.1c31-10.2,61.8-21.2,93.4-29
			c96.4-23.7,193.4-43.4,293.4-46.8c69.8-2.4,139.4-10.6,209.1-16.2C1947.6,1.1,1947.7,2.3,1947.8,3.4z"/>
	</g>
</g>
</svg>
