<?xml version="1.0" encoding="utf-8"?>
<!-- Generator: Adobe Illustrator 25.0.0, SVG Export Plug-In . SVG Version: 6.00 Build 0)  -->
<svg version="1.1" id="Layer_1" xmlns="http://www.w3.org/2000/svg" xmlns:xlink="http://www.w3.org/1999/xlink" x="0px" y="0px"
	 viewBox="0 0 538.7 321.5" style="enable-background:new 0 0 538.7 321.5;" xml:space="preserve">
<g>
	<polygon points="383.9,275.8 421.9,275.8 421.9,180.4 383.8,180.4 	"/>
	<rect x="383.8" y="38.1" width="38.1" height="35.2"/>
	<rect x="231.3" y="35.1" width="38.1" height="38.1"/>
	<polygon points="78.8,275.8 116.9,275.8 116.9,180.4 78.7,180.4 	"/>
	<path d="M538.7,321.5V0.1H324.1v19H310V0H157.6h-5H19.1v19.1H0v126.2v12.2v164 M479.2,15.5h38.1v241.8h-38.1V15.5z M479.2,276.3
		h38.1v19.1h-38.1V276.3z M326.7,35.1h19.1v-19h95.3v19.1h19.1v114.3h-0.1H422V92.3h-38.1v57.2h-57.2V35.1z M326.6,161.4H441v19.1
		h19.1v95.3H441v19.1H326.6V161.4z M174.1,16.1h114.4v19.1h19.1v38.1h-0.1h-19.1v19.1h19.1v57.2h-57.2V92.4h-38v57.2h-38.2V16.1z
		 M174.1,161.4h133.5v19h-0.1h-76.3v38.1h57.2v19.1h-57.2v38.1h76.3v19.1H174.1V161.4z M21.5,35.1h19.1v-19H136v19.1h19v19h-19.1
		V35.1H78.7v95.3h38.1V92.3H97.7l0.1-19.1h57.1v57.2h-19.1v19.1H40.6v-19.1H21.5V35.1z M21.5,161.4h114.4v19.1H155v95.3h-19.1v19.1
		H21.5V161.4z"/>
</g>
</svg>
