<?xml version="1.0" encoding="utf-8"?>
<!-- Generator: Adobe Illustrator 25.0.0, SVG Export Plug-In . SVG Version: 6.00 Build 0)  -->
<svg version="1.1" id="Layer_1" xmlns="http://www.w3.org/2000/svg" xmlns:xlink="http://www.w3.org/1999/xlink" x="0px" y="0px"
	 viewBox="0 0 578 356" style="enable-background:new 0 0 578 356;" xml:space="preserve">
<style type="text/css">
	.st0{fill:#FFFFFF;}
</style>
<g>
	<polygon points="343.7,16.9 343.7,35.9 329.6,35.9 329.6,16.8 177.2,16.8 172.1,16.8 38.7,16.8 38.7,35.9 19.6,35.9 19.6,162.1 
		19.6,174.3 19.6,338.6 172.1,338.6 177.1,338.6 324.7,338.6 348.7,338.6 477.2,338.6 477.2,339.2 558.4,339.2 558.4,16.9 	"/>
	<g>
		<g>
			<path class="st0" d="M174.6,90.1v57.2h-19.1v19.1H60.2v-19.1H41.1V51.9h19.1V32.9h95.4v19.1h19V71h-19.1V51.9H98.3v95.3h38.1
				v-38.1h-19.1l0.1-19.1H174.6z"/>
			<path class="st0" d="M193.7,166.3V32.9h114.4v19.1h19.1v38.1h-19.1v19.1h19.1v57.2h-57.2v-57.2h-38v57.2H193.7z M250.9,51.9v38.1
				H289V51.9H250.9z"/>
			<path class="st0" d="M346.2,166.3V51.9h19.1V32.9h95.3v19.1h19.1v114.4h-38.1v-57.2h-38.1v57.2H346.2z M403.4,54.9v35.2h38.1
				V54.9H403.4z"/>
			<path class="st0" d="M41.1,311.6V178.2h114.4v19.1h19.1v95.3h-19.1v19.1H41.1z M98.4,292.6h38v-95.3H98.3L98.4,292.6z"/>
			<path class="st0" d="M327.1,311.6H193.7V178.2h133.5v19.1h-76.3v38.1h57.2v19.1h-57.2v38.1h76.3V311.6z"/>
			<path class="st0" d="M346.2,311.6V178.2h114.4v19.1h19.1v95.3h-19.1v19.1H346.2z M403.5,292.6h38v-95.3h-38.1L403.5,292.6z"/>
		</g>
		<g>
			<path class="st0" d="M536.9,32.3v241.8h-38.1V32.3H536.9z M536.9,293.1v19.1h-38.1v-19.1H536.9z"/>
		</g>
	</g>
</g>
</svg>
