<?xml version="1.0" encoding="utf-8"?>
<!-- Generator: Adobe Illustrator 27.1.1, SVG Export Plug-In . SVG Version: 6.00 Build 0)  -->
<svg version="1.1" id="Capa_1" xmlns="http://www.w3.org/2000/svg" xmlns:xlink="http://www.w3.org/1999/xlink" x="0px" y="0px"
	 viewBox="0 0 123.1 126" style="enable-background:new 0 0 123.1 126;" xml:space="preserve">
<style type="text/css">.st0{fill:#40C057;}</style>
<path class="st0" d="M123,68.7l-3.6-49.9c-0.9-13.5-8.5-19.7-22.7-18.7L17,5.7C4.5,6.5-1.1,13.2,0.2,25.7l4.2,46.1
	c1.2,12.1,8,18.1,20.3,17.9l16.1-0.1l0.3,25.8c0.1,7.5,3.7,11.1,10.8,10.6l26.9-1.9c7.3-0.5,10.7-4.6,10.1-12.3l-1.6-22.9l16-0.2
	C117.3,88.5,123.9,81.8,123,68.7z M48.9,51.3c0,0.5-0.1,1-0.2,1.4c-1.5-0.5-3.3-0.8-5.3-0.8c-0.7,0-1.5,0-2.1,0.1c0-0.2,0-0.5,0-0.7
	V41.1c0-1.1,0.4-2,1.1-2.7c0.7-0.8,1.6-1.1,2.7-1.1c1.1,0,1.9,0.3,2.7,1.1c0.7,0.7,1.1,1.6,1.1,2.7V51.3z M76.8,59.3
	c-0.2,0.4-0.4,0.8-0.7,1C72.8,62.1,69.8,63,67,63c-3,0-6.4-0.9-10-2.7c-0.5-0.3-0.9-0.6-1.2-1c-0.2-0.2-0.3-0.4-0.3-0.5
	c-0.1-0.2-0.2-0.4-0.2-0.6c0-0.1-0.1-0.2-0.1-0.3c-0.1-0.5,0.1-0.8,0.6-0.8c0-0.1,0.1-0.1,0.2-0.1h0.1h0.1c0.2,0,0.5,0,0.9,0.2
	c6.4,3.5,12.4,3.5,17.9,0c0.2-0.2,0.4-0.3,0.7-0.2c0,0,0.1,0,0.2,0c-0.1,0,0,0,0.1,0.1c0.4,0.1,0.6,0.4,0.8,0.9
	c0,0.2,0.1,0.5,0.1,0.8C76.8,58.9,76.8,59.1,76.8,59.3z M90,51.3c0,0.5-0.1,0.9-0.2,1.3c-1-0.3-2.2-0.5-3.5-0.5
	c-1.4,0-2.6,0.2-3.7,0.5c-0.2-0.4-0.3-0.9-0.2-1.3V41.1c0-1.1,0.4-2,1.2-2.7c0.7-0.8,1.6-1.1,2.7-1.1c0.9,0,1.8,0.3,2.6,1.1
	c0.7,0.7,1.1,1.6,1.1,2.7V51.3z"/>
</svg>
